<svg width="32" height="25" viewBox="0 0 32 25" fill="none" xmlns="http://www.w3.org/2000/svg">
<path d="M31.0625 11.9362L20.5625 1.43617C19.625 0.498671 18 1.15492 18 2.49867V8.49867H9.5C8.66875 8.49867 8 9.16742 8 9.99867V15.9987C8 16.8299 8.66875 17.4987 9.5 17.4987H18V23.4987C18 24.8362 19.6187 25.4987 20.5625 24.5612L31.0625 14.0612C31.6437 13.4737 31.6437 12.5237 31.0625 11.9362ZM12 1.74867V4.24867C12 4.66117 11.6625 4.99867 11.25 4.99867H6C4.89375 4.99867 4 5.89242 4 6.99867V18.9987C4 20.1049 4.89375 20.9987 6 20.9987H11.25C11.6625 20.9987 12 21.3362 12 21.7487V24.2487C12 24.6612 11.6625 24.9987 11.25 24.9987H6C2.6875 24.9987 0 22.3112 0 18.9987V6.99867C0 3.68617 2.6875 0.998671 6 0.998671H11.25C11.6625 0.998671 12 1.33617 12 1.74867Z" fill="white"/>
</svg>
